<?xml version='1.0' encoding='UTF-8'?>
<svg xmlns="http://www.w3.org/2000/svg" version="1.1">
<!--
Rot z: 0.0, rot y: 90.0 of: Rot z: 90.0, rot y: 0.0 of: Rot z: 0.0, rot y: 90.0 of: View of network
[ 0, 0, 55, 55 ]
-->
    <rect x="0.0" y="0.0" width="55.0" height="55.0" style="fill:none;stroke:black;stroke-width:1;"/>
    <text x="25.0" y="30.0" fill="black" font-size="8px">
10.0 μm    </text>
    <circle cx="20.0" cy="20.0" r="5.0" stroke-width="0" fill="red"/>
    <circle cx="20.0" cy="20.0" r="5.0" stroke-width="0" fill="red"/>
    <circle cx="20.0" cy="20.0" r="5.0" stroke-width="0" fill="red"/>
    <circle cx="20.0" cy="20.0" r="5.0" stroke-width="0" fill="red"/>
    <circle cx="20.0" cy="20.0" r="5.0" stroke-width="0" fill="red"/>
    <circle cx="20.0" cy="20.0" r="5.0" stroke-width="0" fill="red"/>
    <circle cx="20.0" cy="20.0" r="5.0" stroke-width="0" fill="red"/>
    <circle cx="20.0" cy="20.0" r="5.0" stroke-width="0" fill="red"/>
    <circle cx="20.0" cy="20.0" r="5.0" stroke-width="0" fill="red"/>
    <circle cx="20.0" cy="20.0" r="5.0" stroke-width="0" fill="red"/>
    <circle cx="20.0" cy="20.0" r="5.0" stroke-width="0" fill="red"/>
    <circle cx="20.0" cy="20.0" r="5.0" stroke-width="0" fill="red"/>
    <circle cx="20.0" cy="20.0" r="5.0" stroke-width="0" fill="red"/>
    <circle cx="20.0" cy="20.0" r="5.0" stroke-width="0" fill="red"/>
    <circle cx="20.0" cy="20.0" r="5.0" stroke-width="0" fill="red"/>
    <circle cx="20.0" cy="20.0" r="5.0" stroke-width="0" fill="red"/>
    <circle cx="20.0" cy="20.0" r="5.0" stroke-width="0" fill="red"/>
    <circle cx="20.0" cy="20.0" r="5.0" stroke-width="0" fill="red"/>
    <circle cx="20.0" cy="20.0" r="5.0" stroke-width="0" fill="red"/>
    <circle cx="20.0" cy="20.0" r="5.0" stroke-width="0" fill="red"/>
    <line x1="35.0" y1="35.0" x2="25.0" y2="35.0" style="stroke:green;stroke-width:1.0"/>
    <circle cx="35.0" cy="35.0" r="0.5" stroke-width="0" fill="yellow"/>
    <line x1="35.0" y1="35.0" x2="35.0" y2="25.0" style="stroke:red;stroke-width:1.0"/>
<!--
Rot z: 0.0, rot y: 90.0 of: View of network
[ 55, 0, 55, 55 ]
-->
    <rect x="55.0" y="0.0" width="55.0" height="55.0" style="fill:none;stroke:black;stroke-width:1;"/>
    <circle cx="90.0" cy="20.0" r="5.0" stroke-width="0" fill="red"/>
    <circle cx="90.0" cy="20.0" r="5.0" stroke-width="0" fill="red"/>
    <circle cx="90.0" cy="20.0" r="5.0" stroke-width="0" fill="red"/>
    <circle cx="90.0" cy="20.0" r="5.0" stroke-width="0" fill="red"/>
    <circle cx="90.0" cy="20.0" r="5.0" stroke-width="0" fill="red"/>
    <circle cx="90.0" cy="20.0" r="5.0" stroke-width="0" fill="red"/>
    <circle cx="90.0" cy="20.0" r="5.0" stroke-width="0" fill="red"/>
    <circle cx="90.0" cy="20.0" r="5.0" stroke-width="0" fill="red"/>
    <circle cx="90.0" cy="20.0" r="5.0" stroke-width="0" fill="red"/>
    <circle cx="90.0" cy="20.0" r="5.0" stroke-width="0" fill="red"/>
    <circle cx="90.0" cy="20.0" r="5.0" stroke-width="0" fill="red"/>
    <circle cx="90.0" cy="20.0" r="5.0" stroke-width="0" fill="red"/>
    <circle cx="90.0" cy="20.0" r="5.0" stroke-width="0" fill="red"/>
    <circle cx="90.0" cy="20.0" r="5.0" stroke-width="0" fill="red"/>
    <circle cx="90.0" cy="20.0" r="5.0" stroke-width="0" fill="red"/>
    <circle cx="90.0" cy="20.0" r="5.0" stroke-width="0" fill="red"/>
    <circle cx="90.0" cy="20.0" r="5.0" stroke-width="0" fill="red"/>
    <circle cx="90.0" cy="20.0" r="5.0" stroke-width="0" fill="red"/>
    <circle cx="90.0" cy="20.0" r="5.0" stroke-width="0" fill="red"/>
    <circle cx="90.0" cy="20.0" r="5.0" stroke-width="0" fill="red"/>
    <circle cx="75.0" cy="35.0" r="0.5" stroke-width="0" fill="green"/>
    <line x1="75.0" y1="35.0" x2="75.0" y2="25.0" style="stroke:yellow;stroke-width:1.0"/>
    <line x1="75.0" y1="35.0" x2="85.0" y2="35.0" style="stroke:red;stroke-width:1.0"/>
<!--
Rot z: 0.0, rot y: 0.0 of: View of network
[ 0, 55, 55, 55 ]
-->
    <rect x="0.0" y="55.0" width="55.0" height="55.0" style="fill:none;stroke:black;stroke-width:1;"/>
    <circle cx="35.0" cy="75.0" r="5.0" stroke-width="0" fill="red"/>
    <circle cx="35.0" cy="75.0" r="5.0" stroke-width="0" fill="red"/>
    <circle cx="35.0" cy="75.0" r="5.0" stroke-width="0" fill="red"/>
    <circle cx="35.0" cy="75.0" r="5.0" stroke-width="0" fill="red"/>
    <circle cx="35.0" cy="75.0" r="5.0" stroke-width="0" fill="red"/>
    <circle cx="35.0" cy="75.0" r="5.0" stroke-width="0" fill="red"/>
    <circle cx="35.0" cy="75.0" r="5.0" stroke-width="0" fill="red"/>
    <circle cx="35.0" cy="75.0" r="5.0" stroke-width="0" fill="red"/>
    <circle cx="35.0" cy="75.0" r="5.0" stroke-width="0" fill="red"/>
    <circle cx="35.0" cy="75.0" r="5.0" stroke-width="0" fill="red"/>
    <circle cx="35.0" cy="75.0" r="5.0" stroke-width="0" fill="red"/>
    <circle cx="35.0" cy="75.0" r="5.0" stroke-width="0" fill="red"/>
    <circle cx="35.0" cy="75.0" r="5.0" stroke-width="0" fill="red"/>
    <circle cx="35.0" cy="75.0" r="5.0" stroke-width="0" fill="red"/>
    <circle cx="35.0" cy="75.0" r="5.0" stroke-width="0" fill="red"/>
    <circle cx="35.0" cy="75.0" r="5.0" stroke-width="0" fill="red"/>
    <circle cx="35.0" cy="75.0" r="5.0" stroke-width="0" fill="red"/>
    <circle cx="35.0" cy="75.0" r="5.0" stroke-width="0" fill="red"/>
    <circle cx="35.0" cy="75.0" r="5.0" stroke-width="0" fill="red"/>
    <circle cx="35.0" cy="75.0" r="5.0" stroke-width="0" fill="red"/>
    <line x1="20.0" y1="90.0" x2="30.0" y2="90.0" style="stroke:green;stroke-width:1.0"/>
    <line x1="20.0" y1="90.0" x2="20.0" y2="80.0" style="stroke:yellow;stroke-width:1.0"/>
    <circle cx="20.0" cy="90.0" r="0.5" stroke-width="0" fill="red"/>
<!--
Rot z: -10.0, rot y: -20.0 of: View of network
[ 55, 55, 54, 51 ]
-->
    <rect x="55.0" y="55.0" width="54.0" height="51.0" style="fill:none;stroke:black;stroke-width:1;"/>
    <circle cx="82.15306316445263" cy="80.7922796533957" r="5.0" stroke-width="0" fill="red"/>
    <circle cx="82.15306316445263" cy="80.7922796533957" r="5.0" stroke-width="0" fill="red"/>
    <circle cx="82.15306316445263" cy="80.7922796533957" r="5.0" stroke-width="0" fill="red"/>
    <circle cx="82.15306316445263" cy="80.7922796533957" r="5.0" stroke-width="0" fill="red"/>
    <circle cx="82.15306316445263" cy="80.7922796533957" r="5.0" stroke-width="0" fill="red"/>
    <circle cx="82.15306316445263" cy="80.7922796533957" r="5.0" stroke-width="0" fill="red"/>
    <circle cx="82.15306316445263" cy="80.7922796533957" r="5.0" stroke-width="0" fill="red"/>
    <circle cx="82.15306316445263" cy="80.7922796533957" r="5.0" stroke-width="0" fill="red"/>
    <circle cx="82.15306316445263" cy="80.7922796533957" r="5.0" stroke-width="0" fill="red"/>
    <circle cx="82.15306316445263" cy="80.7922796533957" r="5.0" stroke-width="0" fill="red"/>
    <circle cx="82.15306316445263" cy="80.7922796533957" r="5.0" stroke-width="0" fill="red"/>
    <circle cx="82.15306316445263" cy="80.7922796533957" r="5.0" stroke-width="0" fill="red"/>
    <circle cx="82.15306316445263" cy="80.7922796533957" r="5.0" stroke-width="0" fill="red"/>
    <circle cx="82.15306316445263" cy="80.7922796533957" r="5.0" stroke-width="0" fill="red"/>
    <circle cx="82.15306316445263" cy="80.7922796533957" r="5.0" stroke-width="0" fill="red"/>
    <circle cx="82.15306316445263" cy="80.7922796533957" r="5.0" stroke-width="0" fill="red"/>
    <circle cx="82.15306316445263" cy="80.7922796533957" r="5.0" stroke-width="0" fill="red"/>
    <circle cx="82.15306316445263" cy="80.7922796533957" r="5.0" stroke-width="0" fill="red"/>
    <circle cx="82.15306316445263" cy="80.7922796533957" r="5.0" stroke-width="0" fill="red"/>
    <circle cx="82.15306316445263" cy="80.7922796533957" r="5.0" stroke-width="0" fill="red"/>
    <line x1="78.42020143325668" y1="84.84807753012208" x2="87.67436721723992" y2="86.58455930679139" style="stroke:green;stroke-width:0.5"/>
    <line x1="80.05196054492204" y1="75.0" x2="89.30612632890526" y2="76.73648177666931" style="stroke:green;stroke-width:0.5"/>
    <line x1="76.63175911166535" y1="75.0" x2="85.88592489564859" y2="76.73648177666931" style="stroke:green;stroke-width:0.5"/>
    <line x1="75.0" y1="84.84807753012208" x2="84.25416578398323" y2="86.58455930679139" style="stroke:green;stroke-width:0.5"/>
    <line x1="78.42020143325668" y1="84.84807753012208" x2="80.05196054492204" y2="75.0" style="stroke:yellow;stroke-width:0.5"/>
    <line x1="87.67436721723992" y1="86.58455930679139" x2="89.30612632890526" y2="76.73648177666931" style="stroke:yellow;stroke-width:0.5"/>
    <line x1="75.0" y1="84.84807753012208" x2="76.63175911166535" y2="75.0" style="stroke:yellow;stroke-width:0.5"/>
    <line x1="84.25416578398323" y1="86.58455930679139" x2="85.88592489564859" y2="76.73648177666931" style="stroke:yellow;stroke-width:0.5"/>
    <line x1="78.42020143325668" y1="84.84807753012208" x2="75.0" y2="84.84807753012208" style="stroke:red;stroke-width:0.5"/>
    <line x1="87.67436721723992" y1="86.58455930679139" x2="84.25416578398323" y2="86.58455930679139" style="stroke:red;stroke-width:0.5"/>
    <line x1="80.05196054492204" y1="75.0" x2="76.63175911166535" y2="75.0" style="stroke:red;stroke-width:0.5"/>
    <line x1="89.30612632890526" y1="76.73648177666931" x2="85.88592489564859" y2="76.73648177666931" style="stroke:red;stroke-width:0.5"/>
</svg>
